<svg id="my-svg" width="100%" xmlns="http://www.w3.org/2000/svg" xmlns:xlink="http://www.w3.org/1999/xlink" style="max-width: 1790px; background-color: transparent;" viewBox="100 -57 1790 745.7999877929688" role="graphics-document document" aria-roledescription="timeline"><style>#my-svg{font-family:"trebuchet ms",verdana,arial,sans-serif;font-size:14px;fill:#1A1A1A;}@keyframes edge-animation-frame{from{stroke-dashoffset:0;}}@keyframes dash{to{stroke-dashoffset:0;}}#my-svg .edge-animation-slow{stroke-dasharray:9,5!important;stroke-dashoffset:900;animation:dash 50s linear infinite;stroke-linecap:round;}#my-svg .edge-animation-fast{stroke-dasharray:9,5!important;stroke-dashoffset:900;animation:dash 20s linear infinite;stroke-linecap:round;}#my-svg .error-icon{fill:#4285F4;}#my-svg .error-text{fill:#bd7a0b;stroke:#bd7a0b;}#my-svg .edge-thickness-normal{stroke-width:1px;}#my-svg .edge-thickness-thick{stroke-width:3.5px;}#my-svg .edge-pattern-solid{stroke-dasharray:0;}#my-svg .edge-thickness-invisible{stroke-width:0;fill:none;}#my-svg .edge-pattern-dashed{stroke-dasharray:3;}#my-svg .edge-pattern-dotted{stroke-dasharray:2;}#my-svg .marker{fill:#666666;stroke:#666666;}#my-svg .marker.cross{stroke:#666666;}#my-svg svg{font-family:"trebuchet ms",verdana,arial,sans-serif;font-size:14px;}#my-svg p{margin:0;}#my-svg .edge{stroke-width:3;}#my-svg .section--1 rect,#my-svg .section--1 path,#my-svg .section--1 circle,#my-svg .section--1 path{fill:hsl(37.4285714286, 91.3043478261%, 29.9019607843%);}#my-svg .section--1 text{fill:#1A1A1A;}#my-svg .node-icon--1{font-size:40px;color:#1A1A1A;}#my-svg .section-edge--1{stroke:hsl(37.4285714286, 91.3043478261%, 29.9019607843%);}#my-svg .edge-depth--1{stroke-width:17;}#my-svg .section--1 line{stroke:rgb(109.1304347827, 161.5108695652, 248.3695652174);stroke-width:3;}#my-svg .lineWrapper line{stroke:#1A1A1A;}#my-svg .disabled,#my-svg .disabled circle,#my-svg .disabled text{fill:#4285F4;}#my-svg .disabled text{fill:#E8D5B7;}#my-svg .section-0 rect,#my-svg .section-0 path,#my-svg .section-0 circle,#my-svg .section-0 path{fill:hsl(153.1034482759, 60.1659751037%, 27.7450980392%);}#my-svg .section-0 text{fill:#1A1A1A;}#my-svg .node-icon-0{font-size:40px;color:#1A1A1A;}#my-svg .section-edge-0{stroke:hsl(153.1034482759, 60.1659751037%, 27.7450980392%);}#my-svg .edge-depth-0{stroke-width:14;}#my-svg .section-0 line{stroke:rgb(226.8174273859, 141.6825726142, 179.846473029);stroke-width:3;}#my-svg .lineWrapper line{stroke:#1A1A1A;}#my-svg .disabled,#my-svg .disabled circle,#my-svg .disabled text{fill:#4285F4;}#my-svg .disabled text{fill:#E8D5B7;}#my-svg .section-1 rect,#my-svg .section-1 path,#my-svg .section-1 circle,#my-svg .section-1 path{fill:hsl(217.4157303371, 89%, 35.7843137255%);}#my-svg .section-1 text{fill:#1A1A1A;}#my-svg .node-icon-1{font-size:40px;color:#1A1A1A;}#my-svg .section-edge-1{stroke:hsl(217.4157303371, 89%, 35.7843137255%);}#my-svg .edge-depth-1{stroke-width:11;}#my-svg .section-1 line{stroke:rgb(244.9625, 183.825, 82.5375);stroke-width:3;}#my-svg .lineWrapper line{stroke:#1A1A1A;}#my-svg .disabled,#my-svg .disabled circle,#my-svg .disabled text{fill:#4285F4;}#my-svg .disabled text{fill:#E8D5B7;}#my-svg .section-2 rect,#my-svg .section-2 path,#my-svg .section-2 circle,#my-svg .section-2 path{fill:hsl(67.4285714286, 91.3043478261%, 29.9019607843%);}#my-svg .section-2 text{fill:#1A1A1A;}#my-svg .node-icon-2{font-size:40px;color:#1A1A1A;}#my-svg .section-edge-2{stroke:hsl(67.4285714286, 91.3043478261%, 29.9019607843%);}#my-svg .edge-depth-2{stroke-width:8;}#my-svg .section-2 line{stroke:rgb(126.3695652175, 109.1304347827, 248.3695652174);stroke-width:3;}#my-svg .lineWrapper line{stroke:#1A1A1A;}#my-svg .disabled,#my-svg .disabled circle,#my-svg .disabled text{fill:#4285F4;}#my-svg .disabled text{fill:#E8D5B7;}#my-svg .section-3 rect,#my-svg .section-3 path,#my-svg .section-3 circle,#my-svg .section-3 path{fill:hsl(97.4285714286, 91.3043478261%, 29.9019607843%);}#my-svg .section-3 text{fill:#1A1A1A;}#my-svg .node-icon-3{font-size:40px;color:#1A1A1A;}#my-svg .section-edge-3{stroke:hsl(97.4285714286, 91.3043478261%, 29.9019607843%);}#my-svg .edge-depth-3{stroke-width:5;}#my-svg .section-3 line{stroke:rgb(195.9891304349, 109.1304347827, 248.3695652174);stroke-width:3;}#my-svg .lineWrapper line{stroke:#1A1A1A;}#my-svg .disabled,#my-svg .disabled circle,#my-svg .disabled text{fill:#4285F4;}#my-svg .disabled text{fill:#E8D5B7;}#my-svg .section-4 rect,#my-svg .section-4 path,#my-svg .section-4 circle,#my-svg .section-4 path{fill:hsl(127.4285714286, 91.3043478261%, 29.9019607843%);}#my-svg .section-4 text{fill:#1A1A1A;}#my-svg .node-icon-4{font-size:40px;color:#1A1A1A;}#my-svg .section-edge-4{stroke:hsl(127.4285714286, 91.3043478261%, 29.9019607843%);}#my-svg .edge-depth-4{stroke-width:2;}#my-svg .section-4 line{stroke:rgb(248.3695652174, 109.1304347827, 231.1304347826);stroke-width:3;}#my-svg .lineWrapper line{stroke:#1A1A1A;}#my-svg .disabled,#my-svg .disabled circle,#my-svg .disabled text{fill:#4285F4;}#my-svg .disabled text{fill:#E8D5B7;}#my-svg .section-5 rect,#my-svg .section-5 path,#my-svg .section-5 circle,#my-svg .section-5 path{fill:hsl(157.4285714286, 91.3043478261%, 29.9019607843%);}#my-svg .section-5 text{fill:#1A1A1A;}#my-svg .node-icon-5{font-size:40px;color:#1A1A1A;}#my-svg .section-edge-5{stroke:hsl(157.4285714286, 91.3043478261%, 29.9019607843%);}#my-svg .edge-depth-5{stroke-width:-1;}#my-svg .section-5 line{stroke:rgb(248.3695652174, 109.1304347827, 161.5108695652);stroke-width:3;}#my-svg .lineWrapper line{stroke:#1A1A1A;}#my-svg .disabled,#my-svg .disabled circle,#my-svg .disabled text{fill:#4285F4;}#my-svg .disabled text{fill:#E8D5B7;}#my-svg .section-6 rect,#my-svg .section-6 path,#my-svg .section-6 circle,#my-svg .section-6 path{fill:hsl(187.4285714286, 91.3043478261%, 29.9019607843%);}#my-svg .section-6 text{fill:#1A1A1A;}#my-svg .node-icon-6{font-size:40px;color:#1A1A1A;}#my-svg .section-edge-6{stroke:hsl(187.4285714286, 91.3043478261%, 29.9019607843%);}#my-svg .edge-depth-6{stroke-width:-4;}#my-svg .section-6 line{stroke:rgb(248.3695652174, 126.3695652175, 109.1304347827);stroke-width:3;}#my-svg .lineWrapper line{stroke:#1A1A1A;}#my-svg .disabled,#my-svg .disabled circle,#my-svg .disabled text{fill:#4285F4;}#my-svg .disabled text{fill:#E8D5B7;}#my-svg .section-7 rect,#my-svg .section-7 path,#my-svg .section-7 circle,#my-svg .section-7 path{fill:hsl(247.4285714286, 91.3043478261%, 75%);}#my-svg .section-7 text{fill:#1A1A1A;}#my-svg .node-icon-7{font-size:40px;color:#1A1A1A;}#my-svg .section-edge-7{stroke:hsl(247.4285714286, 91.3043478261%, 75%);}#my-svg .edge-depth-7{stroke-width:-7;}#my-svg .section-7 line{stroke:rgb(107.5434782608, 121.9565217391, 5.5434782609);stroke-width:3;}#my-svg .lineWrapper line{stroke:#1A1A1A;}#my-svg .disabled,#my-svg .disabled circle,#my-svg .disabled text{fill:#4285F4;}#my-svg .disabled text{fill:#E8D5B7;}#my-svg .section-8 rect,#my-svg .section-8 path,#my-svg .section-8 circle,#my-svg .section-8 path{fill:hsl(307.4285714286, 91.3043478261%, 29.9019607843%);}#my-svg .section-8 text{fill:#1A1A1A;}#my-svg .node-icon-8{font-size:40px;color:#1A1A1A;}#my-svg .section-edge-8{stroke:hsl(307.4285714286, 91.3043478261%, 29.9019607843%);}#my-svg .edge-depth-8{stroke-width:-10;}#my-svg .section-8 line{stroke:rgb(109.1304347827, 248.3695652174, 126.3695652175);stroke-width:3;}#my-svg .lineWrapper line{stroke:#1A1A1A;}#my-svg .disabled,#my-svg .disabled circle,#my-svg .disabled text{fill:#4285F4;}#my-svg .disabled text{fill:#E8D5B7;}#my-svg .section-9 rect,#my-svg .section-9 path,#my-svg .section-9 circle,#my-svg .section-9 path{fill:hsl(337.4285714286, 91.3043478261%, 29.9019607843%);}#my-svg .section-9 text{fill:#1A1A1A;}#my-svg .node-icon-9{font-size:40px;color:#1A1A1A;}#my-svg .section-edge-9{stroke:hsl(337.4285714286, 91.3043478261%, 29.9019607843%);}#my-svg .edge-depth-9{stroke-width:-13;}#my-svg .section-9 line{stroke:rgb(109.1304347827, 248.3695652174, 195.9891304349);stroke-width:3;}#my-svg .lineWrapper line{stroke:#1A1A1A;}#my-svg .disabled,#my-svg .disabled circle,#my-svg .disabled text{fill:#4285F4;}#my-svg .disabled text{fill:#E8D5B7;}#my-svg .section-10 rect,#my-svg .section-10 path,#my-svg .section-10 circle,#my-svg .section-10 path{fill:hsl(7.4285714286, 91.3043478261%, 29.9019607843%);}#my-svg .section-10 text{fill:#1A1A1A;}#my-svg .node-icon-10{font-size:40px;color:#1A1A1A;}#my-svg .section-edge-10{stroke:hsl(7.4285714286, 91.3043478261%, 29.9019607843%);}#my-svg .edge-depth-10{stroke-width:-16;}#my-svg .section-10 line{stroke:rgb(109.1304347827, 231.1304347826, 248.3695652174);stroke-width:3;}#my-svg .lineWrapper line{stroke:#1A1A1A;}#my-svg .disabled,#my-svg .disabled circle,#my-svg .disabled text{fill:#4285F4;}#my-svg .disabled text{fill:#E8D5B7;}#my-svg .section--1[data-look="neo"] rect,#my-svg .section--1[data-look="neo"] path,#my-svg .section--1[data-look="neo"] circle{fill:#FFF8ED;stroke:url(#my-svg-gradient);stroke-width:2;}#my-svg .section--1[data-look="neo"] line{stroke:url(#my-svg-gradient);stroke-width:2;}#my-svg .section-0[data-look="neo"] rect,#my-svg .section-0[data-look="neo"] path,#my-svg .section-0[data-look="neo"] circle{fill:#FFF8ED;stroke:url(#my-svg-gradient);stroke-width:2;}#my-svg .section-0[data-look="neo"] line{stroke:url(#my-svg-gradient);stroke-width:2;}#my-svg .section-1[data-look="neo"] rect,#my-svg .section-1[data-look="neo"] path,#my-svg .section-1[data-look="neo"] circle{fill:#FFF8ED;stroke:url(#my-svg-gradient);stroke-width:2;}#my-svg .section-1[data-look="neo"] line{stroke:url(#my-svg-gradient);stroke-width:2;}#my-svg .section-2[data-look="neo"] rect,#my-svg .section-2[data-look="neo"] path,#my-svg .section-2[data-look="neo"] circle{fill:#FFF8ED;stroke:url(#my-svg-gradient);stroke-width:2;}#my-svg .section-2[data-look="neo"] line{stroke:url(#my-svg-gradient);stroke-width:2;}#my-svg .section-3[data-look="neo"] rect,#my-svg .section-3[data-look="neo"] path,#my-svg .section-3[data-look="neo"] circle{fill:#FFF8ED;stroke:url(#my-svg-gradient);stroke-width:2;}#my-svg .section-3[data-look="neo"] line{stroke:url(#my-svg-gradient);stroke-width:2;}#my-svg .section-4[data-look="neo"] rect,#my-svg .section-4[data-look="neo"] path,#my-svg .section-4[data-look="neo"] circle{fill:#FFF8ED;stroke:url(#my-svg-gradient);stroke-width:2;}#my-svg .section-4[data-look="neo"] line{stroke:url(#my-svg-gradient);stroke-width:2;}#my-svg .section-5[data-look="neo"] rect,#my-svg .section-5[data-look="neo"] path,#my-svg .section-5[data-look="neo"] circle{fill:#FFF8ED;stroke:url(#my-svg-gradient);stroke-width:2;}#my-svg .section-5[data-look="neo"] line{stroke:url(#my-svg-gradient);stroke-width:2;}#my-svg .section-6[data-look="neo"] rect,#my-svg .section-6[data-look="neo"] path,#my-svg .section-6[data-look="neo"] circle{fill:#FFF8ED;stroke:url(#my-svg-gradient);stroke-width:2;}#my-svg .section-6[data-look="neo"] line{stroke:url(#my-svg-gradient);stroke-width:2;}#my-svg .section-7[data-look="neo"] rect,#my-svg .section-7[data-look="neo"] path,#my-svg .section-7[data-look="neo"] circle{fill:#FFF8ED;stroke:url(#my-svg-gradient);stroke-width:2;}#my-svg .section-7[data-look="neo"] line{stroke:url(#my-svg-gradient);stroke-width:2;}#my-svg .section-8[data-look="neo"] rect,#my-svg .section-8[data-look="neo"] path,#my-svg .section-8[data-look="neo"] circle{fill:#FFF8ED;stroke:url(#my-svg-gradient);stroke-width:2;}#my-svg .section-8[data-look="neo"] line{stroke:url(#my-svg-gradient);stroke-width:2;}#my-svg .section-9[data-look="neo"] rect,#my-svg .section-9[data-look="neo"] path,#my-svg .section-9[data-look="neo"] circle{fill:#FFF8ED;stroke:url(#my-svg-gradient);stroke-width:2;}#my-svg .section-9[data-look="neo"] line{stroke:url(#my-svg-gradient);stroke-width:2;}#my-svg .section-10[data-look="neo"] rect,#my-svg .section-10[data-look="neo"] path,#my-svg .section-10[data-look="neo"] circle{fill:#FFF8ED;stroke:url(#my-svg-gradient);stroke-width:2;}#my-svg .section-10[data-look="neo"] line{stroke:url(#my-svg-gradient);stroke-width:2;}#my-svg .section-root rect,#my-svg .section-root path,#my-svg .section-root circle{fill:hsl(37.4285714286, 91.3043478261%, 29.9019607843%);}#my-svg .section-root text{fill:#1A1A1A;}#my-svg .icon-container{height:100%;display:flex;justify-content:center;align-items:center;}#my-svg .edge{fill:none;}#my-svg .eventWrapper{filter:brightness(120%);}#my-svg .node .neo-node{stroke:#D4891A;}#my-svg [data-look="neo"].node rect,#my-svg [data-look="neo"].cluster rect,#my-svg [data-look="neo"].node polygon{stroke:url(#my-svg-gradient);filter:drop-shadow( 1px 2px 2px rgba(185,185,185,1));}#my-svg [data-look="neo"].node path{stroke:url(#my-svg-gradient);stroke-width:1px;}#my-svg [data-look="neo"].node .outer-path{filter:drop-shadow( 1px 2px 2px rgba(185,185,185,1));}#my-svg [data-look="neo"].node .neo-line path{stroke:#D4891A;filter:none;}#my-svg [data-look="neo"].node circle{stroke:url(#my-svg-gradient);filter:drop-shadow( 1px 2px 2px rgba(185,185,185,1));}#my-svg [data-look="neo"].node circle .state-start{fill:#000000;}#my-svg [data-look="neo"].icon-shape .icon{fill:url(#my-svg-gradient);filter:drop-shadow( 1px 2px 2px rgba(185,185,185,1));}#my-svg [data-look="neo"].icon-shape .icon-neo path{stroke:url(#my-svg-gradient);filter:drop-shadow( 1px 2px 2px rgba(185,185,185,1));}#my-svg :root{--mermaid-font-family:"trebuchet ms",verdana,arial,sans-serif;}</style><g/><g/><defs><marker id="my-svg-arrowhead" refX="5" refY="2" markerWidth="6" markerHeight="4" orient="auto"><path d="M 0,0 V 4 L6,2 Z"/></marker></defs><g transform="translate(200, 50)"><g class="timeline-node section--1"><g><path id="my-svg-node-0" class="node-bkg node-undefined" d="M0 59.8 v-54.8 q0,-5,5,-5 h180 q5,0,5,5 v59.8 H0 Z"/><line class="node-line--1" x1="0" y1="64.8" x2="190" y2="64.8"/></g><g transform="translate(95, 10)"><text dy="1em" alignment-baseline="middle" dominant-baseline="middle" text-anchor="middle"><tspan x="0" dy="1em">Discovery</tspan></text></g></g></g><g class="taskWrapper" transform="translate(200, 164.8)"><g class="timeline-node section--1"><g><path id="my-svg-node-1" class="node-bkg node-undefined" d="M0 59.8 v-54.8 q0,-5,5,-5 h180 q5,0,5,5 v59.8 H0 Z"/><line class="node-line--1" x1="0" y1="64.8" x2="190" y2="64.8"/></g><g transform="translate(95, 10)"><text dy="1em" alignment-baseline="middle" dominant-baseline="middle" text-anchor="middle"><tspan x="0" dy="1em">Co-Designer   Interview</tspan></text></g></g></g><g class="lineWrapper"><line x1="295" y1="229.60000000000002" x2="295" y2="638.8" stroke-width="2" stroke="black" marker-end="url(#my-svg-arrowhead)" stroke-dasharray="5,5"/></g><g class="eventWrapper" transform="translate(200, 364.8)"><g class="timeline-node section--1"><g><path id="my-svg-node-2" class="node-bkg node-undefined" d="M0 45 v-40 q0,-5,5,-5 h180 q5,0,5,5 v45 H0 Z"/><line class="node-line--1" x1="0" y1="50" x2="190" y2="50"/></g><g transform="translate(95, 10)"><text dy="1em" alignment-baseline="middle" dominant-baseline="middle" text-anchor="middle"><tspan x="0" dy="1em">Initiation   paralysis</tspan></text></g></g></g><g class="eventWrapper" transform="translate(200, 424.8)"><g class="timeline-node section--1"><g><path id="my-svg-node-3" class="node-bkg node-undefined" d="M0 45 v-40 q0,-5,5,-5 h180 q5,0,5,5 v45 H0 Z"/><line class="node-line--1" x1="0" y1="50" x2="190" y2="50"/></g><g transform="translate(95, 10)"><text dy="1em" alignment-baseline="middle" dominant-baseline="middle" text-anchor="middle"><tspan x="0" dy="1em">Midnight   deadlines</tspan></text></g></g></g><g class="eventWrapper" transform="translate(200, 484.8)"><g class="timeline-node section--1"><g><path id="my-svg-node-4" class="node-bkg node-undefined" d="M0 45 v-40 q0,-5,5,-5 h180 q5,0,5,5 v45 H0 Z"/><line class="node-line--1" x1="0" y1="50" x2="190" y2="50"/></g><g transform="translate(95, 10)"><text dy="1em" alignment-baseline="middle" dominant-baseline="middle" text-anchor="middle"><tspan x="0" dy="1em">Notification   fatigue</tspan></text></g></g></g><g class="eventWrapper" transform="translate(200, 544.8)"><g class="timeline-node section--1"><g><path id="my-svg-node-5" class="node-bkg node-undefined" d="M0 45 v-40 q0,-5,5,-5 h180 q5,0,5,5 v45 H0 Z"/><line class="node-line--1" x1="0" y1="50" x2="190" y2="50"/></g><g transform="translate(95, 10)"><text dy="1em" alignment-baseline="middle" dominant-baseline="middle" text-anchor="middle"><tspan x="0" dy="1em">Midday   energy   peaks</tspan></text></g></g></g><g transform="translate(400, 50)"><g class="timeline-node section-0"><g><path id="my-svg-node-6" class="node-bkg node-undefined" d="M0 59.8 v-54.8 q0,-5,5,-5 h180 q5,0,5,5 v59.8 H0 Z"/><line class="node-line-0" x1="0" y1="64.8" x2="190" y2="64.8"/></g><g transform="translate(95, 10)"><text dy="1em" alignment-baseline="middle" dominant-baseline="middle" text-anchor="middle"><tspan x="0" dy="1em">Concept   1</tspan></text></g></g></g><g class="taskWrapper" transform="translate(400, 164.8)"><g class="timeline-node section-0"><g><path id="my-svg-node-7" class="node-bkg node-undefined" d="M0 59.8 v-54.8 q0,-5,5,-5 h180 q5,0,5,5 v59.8 H0 Z"/><line class="node-line-0" x1="0" y1="64.8" x2="190" y2="64.8"/></g><g transform="translate(95, 10)"><text dy="1em" alignment-baseline="middle" dominant-baseline="middle" text-anchor="middle"><tspan x="0" dy="1em">Wearable   Haptic   Device</tspan></text></g></g></g><g class="lineWrapper"><line x1="495" y1="229.60000000000002" x2="495" y2="638.8" stroke-width="2" stroke="black" marker-end="url(#my-svg-arrowhead)" stroke-dasharray="5,5"/></g><g class="eventWrapper" transform="translate(400, 364.8)"><g class="timeline-node section-0"><g><path id="my-svg-node-8" class="node-bkg node-undefined" d="M0 55.2000015258789 v-50.2000015258789 q0,-5,5,-5 h180 q5,0,5,5 v55.2000015258789 H0 Z"/><line class="node-line-0" x1="0" y1="60.2000015258789" x2="190" y2="60.2000015258789"/></g><g transform="translate(95, 10)"><text dy="1em" alignment-baseline="middle" dominant-baseline="middle" text-anchor="middle"><tspan x="0" dy="1em">Vibrating   wrist</tspan><tspan x="0" dy="1.1em">reminder</tspan></text></g></g></g><g class="eventWrapper" transform="translate(400, 435.00000152587893)"><g class="timeline-node section-0"><g><path id="my-svg-node-9" class="node-bkg node-undefined" d="M0 70.60000305175781 v-65.60000305175781 q0,-5,5,-5 h180 q5,0,5,5 v70.60000305175781 H0 Z"/><line class="node-line-0" x1="0" y1="75.60000305175781" x2="190" y2="75.60000305175781"/></g><g transform="translate(95, 10)"><text dy="1em" alignment-baseline="middle" dominant-baseline="middle" text-anchor="middle"><tspan x="0" dy="1em">DISCARDED   —   addresses</tspan><tspan x="0" dy="1.1em">awareness   not</tspan><tspan x="0" dy="1.1em">initiation</tspan></text></g></g></g><g transform="translate(600, 50)"><g class="timeline-node section-1"><g><path id="my-svg-node-10" class="node-bkg node-undefined" d="M0 59.8 v-54.8 q0,-5,5,-5 h180 q5,0,5,5 v59.8 H0 Z"/><line class="node-line-1" x1="0" y1="64.8" x2="190" y2="64.8"/></g><g transform="translate(95, 10)"><text dy="1em" alignment-baseline="middle" dominant-baseline="middle" text-anchor="middle"><tspan x="0" dy="1em">Pivot</tspan></text></g></g></g><g class="taskWrapper" transform="translate(600, 164.8)"><g class="timeline-node section-1"><g><path id="my-svg-node-11" class="node-bkg node-undefined" d="M0 59.8 v-54.8 q0,-5,5,-5 h180 q5,0,5,5 v59.8 H0 Z"/><line class="node-line-1" x1="0" y1="64.8" x2="190" y2="64.8"/></g><g transform="translate(95, 10)"><text dy="1em" alignment-baseline="middle" dominant-baseline="middle" text-anchor="middle"><tspan x="0" dy="1em">Key   Insight</tspan></text></g></g></g><g class="lineWrapper"><line x1="695" y1="229.60000000000002" x2="695" y2="638.8" stroke-width="2" stroke="black" marker-end="url(#my-svg-arrowhead)" stroke-dasharray="5,5"/></g><g class="eventWrapper" transform="translate(600, 364.8)"><g class="timeline-node section-1"><g><path id="my-svg-node-12" class="node-bkg node-undefined" d="M0 55.2000015258789 v-50.2000015258789 q0,-5,5,-5 h180 q5,0,5,5 v55.2000015258789 H0 Z"/><line class="node-line-1" x1="0" y1="60.2000015258789" x2="190" y2="60.2000015258789"/></g><g transform="translate(95, 10)"><text dy="1em" alignment-baseline="middle" dominant-baseline="middle" text-anchor="middle"><tspan x="0" dy="1em">"Starting   is   harder   than</tspan><tspan x="0" dy="1.1em">continuing"</tspan></text></g></g></g><g class="eventWrapper" transform="translate(600, 435.00000152587893)"><g class="timeline-node section-1"><g><path id="my-svg-node-13" class="node-bkg node-undefined" d="M0 55.2000015258789 v-50.2000015258789 q0,-5,5,-5 h180 q5,0,5,5 v55.2000015258789 H0 Z"/><line class="node-line-1" x1="0" y1="60.2000015258789" x2="190" y2="60.2000015258789"/></g><g transform="translate(95, 10)"><text dy="1em" alignment-baseline="middle" dominant-baseline="middle" text-anchor="middle"><tspan x="0" dy="1em">Abstract   tasks   are</tspan><tspan x="0" dy="1.1em">uniquely   difficult</tspan></text></g></g></g><g class="eventWrapper" transform="translate(600, 505.20000305175785)"><g class="timeline-node section-1"><g><path id="my-svg-node-14" class="node-bkg node-undefined" d="M0 55.2000015258789 v-50.2000015258789 q0,-5,5,-5 h180 q5,0,5,5 v55.2000015258789 H0 Z"/><line class="node-line-1" x1="0" y1="60.2000015258789" x2="190" y2="60.2000015258789"/></g><g transform="translate(95, 10)"><text dy="1em" alignment-baseline="middle" dominant-baseline="middle" text-anchor="middle"><tspan x="0" dy="1em">Needs   help</tspan><tspan x="0" dy="1.1em">decomposing   work</tspan></text></g></g></g><g transform="translate(800, 50)"><g class="timeline-node section-2"><g><path id="my-svg-node-15" class="node-bkg node-undefined" d="M0 59.8 v-54.8 q0,-5,5,-5 h180 q5,0,5,5 v59.8 H0 Z"/><line class="node-line-2" x1="0" y1="64.8" x2="190" y2="64.8"/></g><g transform="translate(95, 10)"><text dy="1em" alignment-baseline="middle" dominant-baseline="middle" text-anchor="middle"><tspan x="0" dy="1em">Concept   2</tspan></text></g></g></g><g class="taskWrapper" transform="translate(800, 164.8)"><g class="timeline-node section-2"><g><path id="my-svg-node-16" class="node-bkg node-undefined" d="M0 59.8 v-54.8 q0,-5,5,-5 h180 q5,0,5,5 v59.8 H0 Z"/><line class="node-line-2" x1="0" y1="64.8" x2="190" y2="64.8"/></g><g transform="translate(95, 10)"><text dy="1em" alignment-baseline="middle" dominant-baseline="middle" text-anchor="middle"><tspan x="0" dy="1em">Basic   Task   List</tspan></text></g></g></g><g class="lineWrapper"><line x1="895" y1="229.60000000000002" x2="895" y2="638.8" stroke-width="2" stroke="black" marker-end="url(#my-svg-arrowhead)" stroke-dasharray="5,5"/></g><g class="eventWrapper" transform="translate(800, 364.8)"><g class="timeline-node section-2"><g><path id="my-svg-node-17" class="node-bkg node-undefined" d="M0 45 v-40 q0,-5,5,-5 h180 q5,0,5,5 v45 H0 Z"/><line class="node-line-2" x1="0" y1="50" x2="190" y2="50"/></g><g transform="translate(95, 10)"><text dy="1em" alignment-baseline="middle" dominant-baseline="middle" text-anchor="middle"><tspan x="0" dy="1em">Smart   reminders   app</tspan></text></g></g></g><g class="eventWrapper" transform="translate(800, 424.8)"><g class="timeline-node section-2"><g><path id="my-svg-node-18" class="node-bkg node-undefined" d="M0 70.60000305175781 v-65.60000305175781 q0,-5,5,-5 h180 q5,0,5,5 v70.60000305175781 H0 Z"/><line class="node-line-2" x1="0" y1="75.60000305175781" x2="190" y2="75.60000305175781"/></g><g transform="translate(95, 10)"><text dy="1em" alignment-baseline="middle" dominant-baseline="middle" text-anchor="middle"><tspan x="0" dy="1em">DISCARDED   —   no</tspan><tspan x="0" dy="1.1em">differentiation   from</tspan><tspan x="0" dy="1.1em">Schoology</tspan></text></g></g></g><g transform="translate(1000, 50)"><g class="timeline-node section-3"><g><path id="my-svg-node-19" class="node-bkg node-undefined" d="M0 59.8 v-54.8 q0,-5,5,-5 h180 q5,0,5,5 v59.8 H0 Z"/><line class="node-line-3" x1="0" y1="64.8" x2="190" y2="64.8"/></g><g transform="translate(95, 10)"><text dy="1em" alignment-baseline="middle" dominant-baseline="middle" text-anchor="middle"><tspan x="0" dy="1em">Innovation</tspan></text></g></g></g><g class="taskWrapper" transform="translate(1000, 164.8)"><g class="timeline-node section-3"><g><path id="my-svg-node-20" class="node-bkg node-undefined" d="M0 59.8 v-54.8 q0,-5,5,-5 h180 q5,0,5,5 v59.8 H0 Z"/><line class="node-line-3" x1="0" y1="64.8" x2="190" y2="64.8"/></g><g transform="translate(95, 10)"><text dy="1em" alignment-baseline="middle" dominant-baseline="middle" text-anchor="middle"><tspan x="0" dy="1em">AI   Breakdown   Engine</tspan></text></g></g></g><g class="lineWrapper"><line x1="1095" y1="229.60000000000002" x2="1095" y2="638.8" stroke-width="2" stroke="black" marker-end="url(#my-svg-arrowhead)" stroke-dasharray="5,5"/></g><g class="eventWrapper" transform="translate(1000, 364.8)"><g class="timeline-node section-3"><g><path id="my-svg-node-21" class="node-bkg node-undefined" d="M0 45 v-40 q0,-5,5,-5 h180 q5,0,5,5 v45 H0 Z"/><line class="node-line-3" x1="0" y1="50" x2="190" y2="50"/></g><g transform="translate(95, 10)"><text dy="1em" alignment-baseline="middle" dominant-baseline="middle" text-anchor="middle"><tspan x="0" dy="1em">Starter   Action   Card</tspan></text></g></g></g><g class="eventWrapper" transform="translate(1000, 424.8)"><g class="timeline-node section-3"><g><path id="my-svg-node-22" class="node-bkg node-undefined" d="M0 55.2000015258789 v-50.2000015258789 q0,-5,5,-5 h180 q5,0,5,5 v55.2000015258789 H0 Z"/><line class="node-line-3" x1="0" y1="60.2000015258789" x2="190" y2="60.2000015258789"/></g><g transform="translate(95, 10)"><text dy="1em" alignment-baseline="middle" dominant-baseline="middle" text-anchor="middle"><tspan x="0" dy="1em">ADHD-specific   prompt</tspan><tspan x="0" dy="1.1em">engineering</tspan></text></g></g></g><g class="eventWrapper" transform="translate(1000, 495.00000152587893)"><g class="timeline-node section-3"><g><path id="my-svg-node-23" class="node-bkg node-undefined" d="M0 45 v-40 q0,-5,5,-5 h180 q5,0,5,5 v45 H0 Z"/><line class="node-line-3" x1="0" y1="50" x2="190" y2="50"/></g><g transform="translate(95, 10)"><text dy="1em" alignment-baseline="middle" dominant-baseline="middle" text-anchor="middle"><tspan x="0" dy="1em">Abstract   task   detection</tspan></text></g></g></g><g transform="translate(1200, 50)"><g class="timeline-node section-4"><g><path id="my-svg-node-24" class="node-bkg node-undefined" d="M0 59.8 v-54.8 q0,-5,5,-5 h180 q5,0,5,5 v59.8 H0 Z"/><line class="node-line-4" x1="0" y1="64.8" x2="190" y2="64.8"/></g><g transform="translate(95, 10)"><text dy="1em" alignment-baseline="middle" dominant-baseline="middle" text-anchor="middle"><tspan x="0" dy="1em">Refinement</tspan></text></g></g></g><g class="taskWrapper" transform="translate(1200, 164.8)"><g class="timeline-node section-4"><g><path id="my-svg-node-25" class="node-bkg node-undefined" d="M0 59.8 v-54.8 q0,-5,5,-5 h180 q5,0,5,5 v59.8 H0 Z"/><line class="node-line-4" x1="0" y1="64.8" x2="190" y2="64.8"/></g><g transform="translate(95, 10)"><text dy="1em" alignment-baseline="middle" dominant-baseline="middle" text-anchor="middle"><tspan x="0" dy="1em">Beta   Testing</tspan></text></g></g></g><g class="lineWrapper"><line x1="1295" y1="229.60000000000002" x2="1295" y2="638.8" stroke-width="2" stroke="black" marker-end="url(#my-svg-arrowhead)" stroke-dasharray="5,5"/></g><g class="eventWrapper" transform="translate(1200, 364.8)"><g class="timeline-node section-4"><g><path id="my-svg-node-26" class="node-bkg node-undefined" d="M0 45 v-40 q0,-5,5,-5 h180 q5,0,5,5 v45 H0 Z"/><line class="node-line-4" x1="0" y1="50" x2="190" y2="50"/></g><g transform="translate(95, 10)"><text dy="1em" alignment-baseline="middle" dominant-baseline="middle" text-anchor="middle"><tspan x="0" dy="1em">Focus   sessions   added</tspan></text></g></g></g><g class="eventWrapper" transform="translate(1200, 424.8)"><g class="timeline-node section-4"><g><path id="my-svg-node-27" class="node-bkg node-undefined" d="M0 55.2000015258789 v-50.2000015258789 q0,-5,5,-5 h180 q5,0,5,5 v55.2000015258789 H0 Z"/><line class="node-line-4" x1="0" y1="60.2000015258789" x2="190" y2="60.2000015258789"/></g><g transform="translate(95, 10)"><text dy="1em" alignment-baseline="middle" dominant-baseline="middle" text-anchor="middle"><tspan x="0" dy="1em">Smart   scheduling   from</tspan><tspan x="0" dy="1.1em">usage   patterns</tspan></text></g></g></g><g class="eventWrapper" transform="translate(1200, 495.00000152587893)"><g class="timeline-node section-4"><g><path id="my-svg-node-28" class="node-bkg node-undefined" d="M0 55.2000015258789 v-50.2000015258789 q0,-5,5,-5 h180 q5,0,5,5 v55.2000015258789 H0 Z"/><line class="node-line-4" x1="0" y1="60.2000015258789" x2="190" y2="60.2000015258789"/></g><g transform="translate(95, 10)"><text dy="1em" alignment-baseline="middle" dominant-baseline="middle" text-anchor="middle"><tspan x="0" dy="1em">Rate-limited</tspan><tspan x="0" dy="1.1em">notifications</tspan></text></g></g></g><g transform="translate(1400, 50)"><g class="timeline-node section-5"><g><path id="my-svg-node-29" class="node-bkg node-undefined" d="M0 59.8 v-54.8 q0,-5,5,-5 h180 q5,0,5,5 v59.8 H0 Z"/><line class="node-line-5" x1="0" y1="64.8" x2="190" y2="64.8"/></g><g transform="translate(95, 10)"><text dy="1em" alignment-baseline="middle" dominant-baseline="middle" text-anchor="middle"><tspan x="0" dy="1em">Launch</tspan></text></g></g></g><g class="taskWrapper" transform="translate(1400, 164.8)"><g class="timeline-node section-5"><g><path id="my-svg-node-30" class="node-bkg node-undefined" d="M0 59.8 v-54.8 q0,-5,5,-5 h180 q5,0,5,5 v59.8 H0 Z"/><line class="node-line-5" x1="0" y1="64.8" x2="190" y2="64.8"/></g><g transform="translate(95, 10)"><text dy="1em" alignment-baseline="middle" dominant-baseline="middle" text-anchor="middle"><tspan x="0" dy="1em">Focal   v1</tspan></text></g></g></g><g class="lineWrapper"><line x1="1495" y1="229.60000000000002" x2="1495" y2="638.8" stroke-width="2" stroke="black" marker-end="url(#my-svg-arrowhead)" stroke-dasharray="5,5"/></g><g class="eventWrapper" transform="translate(1400, 364.8)"><g class="timeline-node section-5"><g><path id="my-svg-node-31" class="node-bkg node-undefined" d="M0 45 v-40 q0,-5,5,-5 h180 q5,0,5,5 v45 H0 Z"/><line class="node-line-5" x1="0" y1="50" x2="190" y2="50"/></g><g transform="translate(95, 10)"><text dy="1em" alignment-baseline="middle" dominant-baseline="middle" text-anchor="middle"><tspan x="0" dy="1em">Web   app   on   Vercel</tspan></text></g></g></g><g class="eventWrapper" transform="translate(1400, 424.8)"><g class="timeline-node section-5"><g><path id="my-svg-node-32" class="node-bkg node-undefined" d="M0 70.60000305175781 v-65.60000305175781 q0,-5,5,-5 h180 q5,0,5,5 v70.60000305175781 H0 Z"/><line class="node-line-5" x1="0" y1="75.60000305175781" x2="190" y2="75.60000305175781"/></g><g transform="translate(95, 10)"><text dy="1em" alignment-baseline="middle" dominant-baseline="middle" text-anchor="middle"><tspan x="0" dy="1em">AI   breakdown   +</tspan><tspan x="0" dy="1.1em">scheduling   +   focus</tspan><tspan x="0" dy="1.1em">timer</tspan></text></g></g></g><g class="eventWrapper" transform="translate(1400, 510.40000305175784)"><g class="timeline-node section-5"><g><path id="my-svg-node-33" class="node-bkg node-undefined" d="M0 55.2000015258789 v-50.2000015258789 q0,-5,5,-5 h180 q5,0,5,5 v55.2000015258789 H0 Z"/><line class="node-line-5" x1="0" y1="60.2000015258789" x2="190" y2="60.2000015258789"/></g><g transform="translate(95, 10)"><text dy="1em" alignment-baseline="middle" dominant-baseline="middle" text-anchor="middle"><tspan x="0" dy="1em">Supabase   backend   +</tspan><tspan x="0" dy="1.1em">Gemini   API</tspan></text></g></g></g><text x="545" font-size="4ex" font-weight="bold" y="20">Focal Co-Design Evolution</text><g class="lineWrapper"><line x1="150" y1="279.6" x2="1840" y2="279.6" stroke-width="4" stroke="black" marker-end="url(#my-svg-arrowhead)"/></g></svg>